{"title":"The Mule (2014) 720p BrRip x264 Esubs 800MB [SReeJoN]","uid":11659280,"size":847117748,"categoryP":"video","categoryS":"hd___movies","magnet":"?xt=urn:btih:8771b14f61aedc487ff239d0734af2904ca45b42&amp;dn=The+Mule+%282014%29+720p+BrRip+x264+Esubs+800MB+%5BSReeJoN%5D&amp;tr=udp%3A%2F%2Ftracker.openbittorrent.com%3A80&amp;tr=udp%3A%2F%2Fopen.demonii.com%3A1337&amp;tr=udp%3A%2F%2Ftracker.coppersurfer.tk%3A6969&amp;tr=udp%3A%2F%2Fexodus.desync.com%3A6969","seeders":0,"leechers":0,"uploader":"siretgr","files":-1,"time":1417972042,"description":" &lt;a href=&quot;\nhttp://www.imdb.com/title/tt2130270/&quot; rel=&quot;nofollow&quot; target=&quot;_NEW&quot;&gt;\nhttp://www.imdb.com/title/tt2130270/&lt;/a&gt;\n\nMedia Info\n\nGeneral\nComplete name                    : E:The Mule (2014) 720p BrRip x264 Esubs 800MB [SReeJoN]The Mule (2014) 720p BrRip x264 Esubs 800MB [SReeJoN].mp4\nFormat                           : MPEG-4\nFormat profile                   : Base Media\nCodec ID                         : isom\nFile size                        : 808 MiB\nDuration                         : 1h 42mn\nOverall bit rate                 : 1 101 Kbps\nEncoded date                     : UTC 2014-12-07 12:14:13\nTagged date                      : UTC 2014-12-07 12:14:13\n\nVideo\nID                               : 1\nFormat                           : AVC\nFormat/Info                      : Advanced Video Codec\nFormat profile                   : &lt;a class=&quot;__cf_email__&quot; href=&quot;/cdn-cgi/l/email-protection&quot; data-cfemail=&quot;f0b8999798b0bcc4dec1&quot;&gt;[email&amp;#160;protected]&lt;/a&gt;&lt;script cf-hash='f9e31' type=&quot;text/javascript&quot;&gt;\n/* &lt;![CDATA[ */!function(){try{var t=&quot;currentScript&quot;in document?document.currentScript:function(){for(var t=document.getElementsByTagName(&quot;script&quot;),e=t.length;e--;)if(t[e].getAttribute(&quot;cf-hash&quot;))return t[e]}();if(t&amp;&amp;t.previousSibling){var e,r,n,i,c=t.previousSibling,a=c.getAttribute(&quot;data-cfemail&quot;);if(a){for(e=&quot;&quot;,r=parseInt(a.substr(0,2),16),n=2;a.length-n;n+=2)i=parseInt(a.substr(n,2),16)^r,e+=String.fromCharCode(i);e=document.createTextNode(e),c.parentNode.replaceChild(e,c)}}}catch(u){}}();/* ]]&gt; */&lt;/script&gt;\nFormat settings, CABAC           : Yes\nFormat settings, ReFrames        : 4 frames\nCodec ID                         : avc1\nCodec ID/Info                    : Advanced Video Coding\nDuration                         : 1h 42mn\nBit rate mode                    : Variable\nBit rate                         : 1 004 Kbps\nMaximum bit rate                 : 9 335 Kbps\nWidth                            : 1 280 pixels\nHeight                           : 536 pixels\nDisplay aspect ratio             : 2.35:1\nFrame rate mode                  : Constant\nFrame rate                       : 24.000 fps\nColor space                      : YUV\nChroma subsampling               : 4:2:0\nBit depth                        : 8 bits\nScan type                        : Progressive\nBits/(Pixel*Frame)               : 0.061\nStream size                      : 736 MiB (91%)\nWriting library                  : x264 core 142 r2479 dd79a61\nEncoding settings                : cabac=1 / ref=4 / deblock=1:-1:-1 / analyse=0x3:0x133 / me=umh / subme=9 / psy=1 / psy_rd=1.00:0.15 / mixed_ref=1 / me_range=24 / chroma_me=1 / trellis=2 / 8x8dct=1 / cqm=0 / deadzone=21,11 / fast_pskip=0 / chroma_qp_offset=-3 / threads=48 / lookahead_threads=4 / sliced_threads=0 / nr=0 / decimate=1 / interlaced=0 / bluray_compat=0 / constrained_intra=0 / bframes=3 / b_pyramid=2 / b_adapt=2 / b_bias=0 / direct=3 / weightb=1 / open_gop=0 / weightp=2 / keyint=250 / keyint_min=24 / scenecut=40 / intra_refresh=0 / rc_lookahead=60 / rc=2pass / mbtree=1 / bitrate=1004 / ratetol=1.0 / qcomp=0.60 / qpmin=0 / qpmax=69 / qpstep=4 / cplxblur=20.0 / qblur=0.5 / vbv_maxrate=31250 / vbv_bufsize=31250 / nal_hrd=none / filler=0 / ip_ratio=1.40 / aq=1:1.00\nEncoded date                     : UTC 2014-12-07 12:14:13\nTagged date                      : UTC 2014-12-07 12:14:19\nColor primaries                  : BT.709-5, BT.1361, IEC 61966-2-4, SMPTE RP177\nMatrix coefficients              : BT.709-5, BT.1361, IEC 61966-2-4 709, SMPTE RP177\n\nAudio\nID                               : 2\nFormat                           : AAC\nFormat/Info                      : Advanced Audio Codec\nFormat profile                   : LC\nCodec ID                         : 40\nDuration                         : 1h 42mn\nBit rate mode                    : Variable\nBit rate                         : 93.7 Kbps\nMaximum bit rate                 : 102 Kbps\nChannel(s)                       : 2 channels\nChannel positions                : Front: L R\nSampling rate                    : 48.0 KHz\nCompression mode                 : Lossy\nStream size                      : 68.8 MiB (9%)\nLanguage                         : English\nEncoded date                     : UTC 2014-12-07 12:14:18\nTagged date                      : UTC 2014-12-07 12:14:19","torrent":{"xt":"urn:btih:8771b14f61aedc487ff239d0734af2904ca45b42","amp;dn":"The+Mule+%282014%29+720p+BrRip+x264+Esubs+800MB+%5BSReeJoN%5D","amp;tr":["udp%3A%2F%2Ftracker.openbittorrent.com%3A80","udp%3A%2F%2Fopen.demonii.com%3A1337","udp%3A%2F%2Ftracker.coppersurfer.tk%3A6969","udp%3A%2F%2Fexodus.desync.com%3A6969"],"infoHash":"8771b14f61aedc487ff239d0734af2904ca45b42","infoHashBuffer":{"type":"Buffer","data":[135,113,177,79,97,174,220,72,127,242,57,208,115,74,242,144,76,164,91,66]},"announce":[],"urlList":[]}}